<svg xmlns="http://www.w3.org/2000/svg" aria-hidden="true" style="width:0;height:0;position:absolute;overflow:hidden"><defs><symbol id="icon-equalizer-1" viewBox="0 0 32 32"><path d="M14 4v-.5c0-.825-.675-1.5-1.5-1.5h-5C6.675 2 6 2.675 6 3.5V4H0v4h6v.5c0 .825.675 1.5 1.5 1.5h5c.825 0 1.5-.675 1.5-1.5V8h18V4H14zM8 8V4h4v4H8zm18 5.5c0-.825-.675-1.5-1.5-1.5h-5c-.825 0-1.5.675-1.5 1.5v.5H0v4h18v.5c0 .825.675 1.5 1.5 1.5h5c.825 0 1.5-.675 1.5-1.5V18h6v-4h-6v-.5zM20 18v-4h4v4h-4zm-6 5.5c0-.825-.675-1.5-1.5-1.5h-5c-.825 0-1.5.675-1.5 1.5v.5H0v4h6v.5c0 .825.675 1.5 1.5 1.5h5c.825 0 1.5-.675 1.5-1.5V28h18v-4H14v-.5zM8 28v-4h4v4H8z"/></symbol></defs><defs><symbol id="icon-equalizer-2" viewBox="0 0 32 32"><path d="M17.198 18.759H11.03a.553.553 0 0 0-.547.552c0 .307.245.552.547.552h6.168a1.655 1.655 0 0 0 3.122 0h.65a.553.553 0 0 0 .547-.552.548.548 0 0 0-.547-.552h-.65a1.655 1.655 0 0 0-3.122 0zM15.354 16h5.616a.553.553 0 0 0 .547-.552.548.548 0 0 0-.547-.552h-5.616a1.655 1.655 0 0 0-3.122 0H11.03a.553.553 0 0 0-.547.552c0 .307.245.552.547.552h1.202a1.655 1.655 0 0 0 3.122 0zm1.844-4.966H11.03a.553.553 0 0 0-.547.552c0 .307.245.552.547.552h6.168a1.655 1.655 0 0 0 3.122 0h.65a.553.553 0 0 0 .547-.552.548.548 0 0 0-.547-.552h-.65a1.655 1.655 0 0 0-3.122 0zm1.561 1.104a.552.552 0 1 0 0-1.104.552.552 0 0 0 0 1.104zm-4.966 2.759a.552.552 0 1 0 0 1.104.552.552 0 0 0 0-1.104zm4.966 4.965a.552.552 0 1 0 0-1.104.552.552 0 0 0 0 1.104z"/></symbol></defs></svg>