<svg
  xmlns="http://www.w3.org/2000/svg"
  aria-hidden="true"
  style="position: absolute; width: 0; height: 0; overflow: hidden"
>
  <defs>
    <symbol id="icon-cross-2" viewBox="0 0 20 20">
      <path
        d="M5.3 18.7c.2.2.4.3.7.3s.5-.1.7-.3l5.3-5.3 5.3 5.3c.2.2.5.3.7.3s.5-.1.7-.3c.4-.4.4-1 0-1.4L13.4 12l5.3-5.3c.4-.4.4-1 0-1.4s-1-.4-1.4 0L12 10.6 6.7 5.3c-.4-.4-1-.4-1.4 0s-.4 1 0 1.4l5.3 5.3-5.3 5.3c-.4.4-.4 1 0 1.4z"
      />
    </symbol>

    <symbol id="icon-equalizer-1" viewBox="0 0 32 32">
      <path
        d="M14 4v-.5c0-.825-.675-1.5-1.5-1.5h-5C6.675 2 6 2.675 6 3.5V4H0v4h6v.5c0 .825.675 1.5 1.5 1.5h5c.825 0 1.5-.675 1.5-1.5V8h18V4H14zM8 8V4h4v4H8zm18 5.5c0-.825-.675-1.5-1.5-1.5h-5c-.825 0-1.5.675-1.5 1.5v.5H0v4h18v.5c0 .825.675 1.5 1.5 1.5h5c.825 0 1.5-.675 1.5-1.5V18h6v-4h-6v-.5zM20 18v-4h4v4h-4zm-6 5.5c0-.825-.675-1.5-1.5-1.5h-5c-.825 0-1.5.675-1.5 1.5v.5H0v4h6v.5c0 .825.675 1.5 1.5 1.5h5c.825 0 1.5-.675 1.5-1.5V28h18v-4H14v-.5zM8 28v-4h4v4H8z"
      />
    </symbol>

    <symbol id="icon-equalizer-2" viewBox="0 0 32 32">
      <path
        d="M17.198 18.759H11.03a.553.553 0 0 0-.547.552c0 .307.245.552.547.552h6.168a1.655 1.655 0 0 0 3.122 0h.65a.553.553 0 0 0 .547-.552.548.548 0 0 0-.547-.552h-.65a1.655 1.655 0 0 0-3.122 0zM15.354 16h5.616a.553.553 0 0 0 .547-.552.548.548 0 0 0-.547-.552h-5.616a1.655 1.655 0 0 0-3.122 0H11.03a.553.553 0 0 0-.547.552c0 .307.245.552.547.552h1.202a1.655 1.655 0 0 0 3.122 0zm1.844-4.966H11.03a.553.553 0 0 0-.547.552c0 .307.245.552.547.552h6.168a1.655 1.655 0 0 0 3.122 0h.65a.553.553 0 0 0 .547-.552.548.548 0 0 0-.547-.552h-.65a1.655 1.655 0 0 0-3.122 0zm1.561 1.104a.552.552 0 1 0 0-1.104.552.552 0 0 0 0 1.104zm-4.966 2.759a.552.552 0 1 0 0 1.104.552.552 0 0 0 0-1.104zm4.966 4.965a.552.552 0 1 0 0-1.104.552.552 0 0 0 0 1.104z"
      />
    </symbol>

    <symbol id="icon-bubble" viewBox="0 0 32 32">
      <path
        d="M16 2c8.837 0 16 5.82 16 13s-7.163 13-16 13a19.66 19.66 0 0 1-2.495-.158C10.068 31.279 5.966 31.895 2 31.986v-.841C4.142 30.096 6 28.184 6 26c0-.305-.024-.604-.068-.897C2.313 22.72 0 19.079 0 15 0 7.82 7.163 2 16 2z"
      />
    </symbol>

    <symbol id="icon-download" viewBox="0 0 32 32">
      <path d="m23 14-8 8-8-8h5V2h6v12zm-8 8H0v8h30v-8H15zm13 4h-4v-2h4v2z" />
    </symbol>

    <symbol id="icon-eye" viewBox="0 0 32 32">
      <path
        d="M16 6C9.021 6 2.972 10.064 0 16c2.972 5.936 9.021 10 16 10s13.027-4.064 16-10c-2.972-5.936-9.021-10-16-10zm7.889 5.303A15.212 15.212 0 0 1 28.559 16a15.223 15.223 0 0 1-4.67 4.697C21.527 22.204 18.799 23 16 23s-5.527-.796-7.889-2.303A15.212 15.212 0 0 1 3.441 16a15.223 15.223 0 0 1 5.041-4.925 8 8 0 1 0 15.036 0c.124.074.248.15.371.228zM16 13a3 3 0 1 1-6 0 3 3 0 0 1 6 0z"
      />
    </symbol>

    <symbol id="icon-heart" viewBox="0 0 32 32">
      <path
        d="M23.6 2c-3.363 0-6.258 2.736-7.599 5.594C14.659 4.736 11.764 2 8.4 2 3.763 2 0 5.764 0 10.401c0 9.433 9.516 11.906 16.001 21.232C22.131 22.365 32 19.533 32 10.401 32 5.764 28.237 2 23.6 2z"
      />
    </symbol>
    <symbol id="icon-download-cloud" viewBox="0 0 32 32">
      <path
        d="M24.972 12.288C24.608 7.657 20.723 4 16 4a8.937 8.937 0 0 0-8.627 6.451A8.003 8.003 0 0 0 2 18c0 4.411 3.589 8 8 8h13c3.86 0 7-3.14 7-7a6.97 6.97 0 0 0-5.028-6.712zm-4.265 5.419-4 4a.997.997 0 0 1-1.414 0l-4-4A1 1 0 0 1 12 16h2v-4a2 2 0 0 1 4 0v4h2a1.002 1.002 0 0 1 .707 1.707z"
      />
    </symbol>
  </defs>
</svg>
